<?xml version="1.0" encoding="UTF-8"?>
<svg id="Layer_2" data-name="Layer 2" xmlns="http://www.w3.org/2000/svg" viewBox="0 0 144.45 128.9">
  <defs>
    <style>
      .cls-1 {
        stroke-width: 0px;
      }
    </style>
  </defs>
  <g id="Layer_1-2" data-name="Layer 1">
    <g>
      <path class="cls-1" d="m80.56,64.66c0,17.55,0,35.11,0,52.66,0,7.7-3.75,11.14-11.39,11.55-5.75.31-9.87-1.68-13.07-6.31-10.09-14.65-25.04-21.63-41.54-26.11-.43-.12-.88-.19-1.3-.33C2.39,92.64,0,89.39,0,77.97c0-9.9-.03-19.8.02-29.71.03-7.61,2.57-11.41,9.77-14.08,6.72-2.5,13.66-4.45,20.32-7.09,9.99-3.96,18.26-10.34,24.71-19,.59-.79,1.32-1.49,1.85-2.32C60.57-.41,66.57-.57,72.7.52c5.18.92,7.85,4.8,7.86,10.4.02,17.91,0,35.83,0,53.74Z"/>
      <path class="cls-1" d="m144.45,64.52c-.07,17.51-4.32,33.79-14.44,48.29-2.38,3.41-5.53,4.71-8.75,3.8-5.54-1.57-7.74-7.39-4.41-12.21,4.6-6.67,7.96-13.87,9.75-21.75,4.65-20.46,2.33-39.81-9.47-57.58-2.89-4.35-2.32-9,1.51-11.63,3.85-2.64,8.35-1.6,11.4,2.78,10.11,14.51,14.35,30.78,14.41,48.3Z"/>
      <path class="cls-1" d="m115.57,64.4c-.05,9.81-2.26,19.07-6.82,27.74-2.41,4.59-6.94,6.22-11.04,4.03-3.99-2.13-5.16-6.6-2.88-11.2,6.77-13.65,6.78-27.29.02-40.95-2.32-4.7-1-9.28,3.17-11.31,4.03-1.96,8.45-.27,10.79,4.22,4.49,8.6,6.68,17.78,6.75,27.46Z"/>
    </g>
  </g>
</svg>