<?xml version="1.0" encoding="UTF-8"?>
<svg id="Layer_2" data-name="Layer 2" xmlns="http://www.w3.org/2000/svg" viewBox="0 0 286.14 414.08">
  <defs>
    <style>
      .cls-1 {
        fill: #fdde03;
      }

      .cls-1, .cls-2, .cls-3 {
        stroke-width: 0px;
      }

      .cls-2 {
        fill: #040404;
      }

      .cls-3 {
        fill: #fdfdfd;
      }
    </style>
  </defs>
  <g id="Layer_1-2" data-name="Layer 1">
    <g>
      <path class="cls-2" d="m146.77.04c20.85.63,45.32,1.47,69.19,7.79,2.89.77,5.76,1.63,8.62,2.53,13.35,4.2,21.3,12.78,22.92,27.12.99,8.74,2.95,17.37,4.41,26.07.96,5.69,4.02,9.35,9.74,10.65,11.21,2.56,17.16,10.24,19.82,20.85,1.62,6.45,3.06,12.96,4.16,19.51,2.85,16.99-6.35,30.73-23.07,34.78-8.21,1.99-9.04,2.91-9.91,11.29-4.96,48.19-9.9,96.38-14.84,144.57-2.04,19.87-3.96,39.76-6.1,59.62-2.67,24.86-19.98,42.85-46.15,46.54-30.03,4.23-60.23,3.29-90.13-1.13-24.03-3.55-37.96-18.47-40.33-40.43-.98-9.1-1.87-18.22-2.81-27.33-5.48-53.16-10.97-106.32-16.47-159.47-.14-1.32-.45-2.63-.62-3.95-.91-7.25,3.14-12.69,10.37-13.93,5.88-1.01,11.58,3.14,12.65,10.02,1.27,8.22,1.87,16.54,2.75,24.81,5.64,53.3,11.16,106.62,16.97,159.9,2.08,19.08,11.15,29.27,30.11,30.75,26.16,2.04,52.55,3.87,78.58-1.91,13.65-3.03,19.97-10.02,21.5-23.97,2.74-24.99,5.09-50.01,7.63-75.02,4.15-40.91,8.31-81.82,12.47-122.73.89-8.73-2.32-12.11-11.09-11.26-34.19,3.29-68.41,4.83-102.77,3.17-30.32-1.46-60.43-4.55-90.29-9.92-15.54-2.8-26.1-17.31-23.77-32.97,1.18-7.88,2.89-15.72,4.95-23.41,3.73-13.89,16.71-22.43,30.91-20.06,40.36,6.73,80.94,9.97,121.86,9.07,22.16-.49,44.23-2.14,66.21-4.94,5.63-.72,6.63-2.04,5.5-7.52-1.6-7.82-3.67-15.58-4.84-23.46-1.41-9.51-6.87-13.94-15.96-15.75-25.11-5-50.47-6.67-76-6.44-18.01.16-35.93,1.45-53.72,4.27-2.3.36-4.59.81-6.88,1.28-1.04.21-1.93.8-1.87,1.97.05,1.13.89,1.66,1.98,1.85,3.28.58,6.53,1.32,9.83,1.76,36.18,4.79,72.38,4.86,108.59.44,1.49-.18,2.98-.42,4.47-.45,7.18-.18,12.32,4.14,12.7,10.62.4,6.75-3.73,11.44-10.81,12.52-23.62,3.61-47.38,4.49-71.22,3.95-21.18-.48-42.21-2.31-62.95-6.86-6.87-1.51-13.49-3.74-19.73-6.92-6.84-3.49-12.18-8.44-12.19-16.84,0-8.3,4.94-13.55,11.86-17.09,13.42-6.86,28.05-9.3,42.78-11.03C104.84.72,123.97-.21,146.77.04Zm-4,135.92c36.23.25,70.86-3.03,105.35-8.02,11.81-1.71,14.76-5.53,13.86-17.38-.1-1.32-.31-2.65-.6-3.94-1.96-8.76-6.31-11.78-15.09-10.35-6.4,1.04-12.75,2.47-19.17,3.36-60.61,8.38-121.12,9.17-181.44-2.69-16.84-3.31-19.46-1.34-22.02,15.55-1.51,9.97.93,13.54,10.98,14.88,36.33,4.82,72.71,9.16,108.14,8.6Z"/>
      <path class="cls-1" d="m142.79,379.82c-10.15,0-20.32.32-30.45-.08-13.19-.52-23.29-10.37-24.69-23.76-1.77-16.88-3.26-33.79-4.94-50.68-3.23-32.45-6.48-64.89-9.8-97.33-.68-6.63-.55-6.99,5.94-5.58,23.39,5.08,45.6.82,67.2-8.33,12.84-5.44,25.38-11.7,39.57-13.18,8.6-.89,16.91.23,25.17,2.46,4.06,1.09,3.66,4.13,3.37,7.19-1.59,17.07-3.15,34.14-4.76,51.21-2.35,24.85-4.71,49.7-7.11,74.55-1.29,13.41-2.5,26.84-4.07,40.22-1.57,13.41-11.42,22.67-24.99,23.24-10.13.43-20.3.08-30.45.09Z"/>
      <path class="cls-3" d="m142.77,135.96c-35.42.56-71.8-3.79-108.14-8.6-10.05-1.33-12.49-4.91-10.98-14.88,2.56-16.89,5.19-18.86,22.02-15.55,60.33,11.86,120.83,11.07,181.44,2.69,6.42-.89,12.77-2.32,19.17-3.36,8.78-1.43,13.13,1.59,15.09,10.35.29,1.29.5,2.62.6,3.94.9,11.86-2.05,15.68-13.86,17.38-34.49,4.99-69.12,8.27-105.35,8.02Z"/>
    </g>
  </g>
</svg>