<?xml version="1.0" encoding="UTF-8"?>
<svg id="Layer_2" data-name="Layer 2" xmlns="http://www.w3.org/2000/svg" viewBox="0 0 144.45 163.36">
  <defs>
    <style>
      .cls-1 {
        stroke-width: 0px;
      }
    </style>
  </defs>
  <g id="Layer_1-2" data-name="Layer 1">
    <g>
      <path class="cls-1" d="m80.56,29.33c0-5.6-2.69-9.48-7.86-10.4-6.13-1.09-12.13-.93-16.03,5.25-.52.83-1.25,1.52-1.84,2.32-.87,1.17-1.77,2.29-2.7,3.37l28.43,35.33c.01-11.96.01-23.92,0-35.87Z"/>
      <path class="cls-1" d="m126.6,101.06c-1.17,5.14-3.01,10-5.43,14.61l10.51,13.05c8.92-13.87,12.7-29.28,12.77-45.79-.06-17.52-4.3-33.8-14.41-48.3-3.05-4.38-7.55-5.42-11.4-2.78-3.83,2.63-4.4,7.28-1.51,11.63,11.8,17.76,14.12,37.12,9.47,57.58Z"/>
      <path class="cls-1" d="m99.5,88.73l12.24,15.2c2.55-6.71,3.79-13.76,3.83-21.12-.06-9.68-2.26-18.86-6.75-27.46-2.34-4.48-6.76-6.18-10.79-4.22-4.17,2.03-5.5,6.61-3.17,11.31,4.33,8.77,5.89,17.53,4.64,26.29Z"/>
      <path class="cls-1" d="m125.16,135.02l-8.96-11.13-8.96-11.14-10.65-13.24-16.03-19.91-34.89-43.35L18.91,2.99C17.18.84,14.56-.18,12.01.03c-1.54.12-3.06.7-4.35,1.74-3.44,2.77-3.99,7.81-1.22,11.25l25.52,31.71c-.61.27-1.22.52-1.84.77-6.67,2.64-13.6,4.59-20.33,7.09C2.59,55.27.06,59.06.03,66.67c-.05,9.9-.02,19.81-.02,29.71,0,11.42,2.38,14.67,13.25,18.15.43.13.87.21,1.31.32,16.5,4.49,31.45,11.46,41.54,26.11,3.19,4.64,7.32,6.62,13.06,6.32,7.64-.41,11.39-3.85,11.39-11.55.01-10.2.01-20.4.01-30.6l44.46,55.25c1.58,1.96,3.9,2.98,6.24,2.98,1.76,0,3.53-.58,5.01-1.77,1.31-1.06,2.2-2.44,2.64-3.95.73-2.43.28-5.17-1.43-7.3l-12.33-15.32Z"/>
    </g>
  </g>
</svg>