<?xml version="1.0" encoding="UTF-8"?>
<svg id="Layer_2" data-name="Layer 2" xmlns="http://www.w3.org/2000/svg" viewBox="0 0 172.92 153.9">
  <defs>
    <style>
      .cls-1 {
        stroke-width: 0px;
      }
    </style>
  </defs>
  <g id="Layer_1-2" data-name="Layer 1">
    <g>
      <path class="cls-1" d="m11.3,93.75H0c7.38-14.78,14.57-29.17,22.02-44.08,7.41,14.82,14.62,29.22,22.01,44.01h-11.33c.71,1.92,1.19,3.51,1.86,5.02,8.6,19.21,23.22,30.85,44.08,33.88,19.45,2.82,35.91-3.58,49.51-17.68.86-.89,2.39-1.57,3.63-1.6,6.66-.15,13.32-.08,19.98-.07.68,0,1.36.06,2.12.09-9.46,19.93-33.18,38.52-61.84,40.39-18.92,1.24-36.17-3.68-51.44-15-15.25-11.31-24.85-26.44-29.32-44.96Z"/>
      <path class="cls-1" d="m172.92,60.27c-7.38,14.77-14.55,29.12-22.02,44.05-7.41-14.81-14.6-29.19-21.99-43.96h11.42c-.63-2.5-.98-4.66-1.72-6.68-2.76-7.48-7.76-13.34-13.95-18.18-11.33-8.85-23.94-14.67-38.57-14.69-16.24-.02-29.87,6.31-40.97,18.07-1.3,1.38-2.53,1.95-4.39,1.92-7.18-.1-14.37-.04-21.95-.04.49-.99.78-1.7,1.17-2.36C32.38,17.67,50.55,5.05,74.35,1.05c39.03-6.56,76.69,18.36,86.61,56.97.42,1.65,1.07,2.39,2.88,2.29,2.84-.16,5.7-.04,9.08-.04Z"/>
      <path class="cls-1" d="m68.59,76.9c0-7.11-.03-14.21.01-21.32.02-4.27,2.96-5.99,6.7-3.85,12.39,7.1,24.77,14.24,37.11,21.43,3.52,2.05,3.56,5.62.07,7.65-12.42,7.23-24.87,14.42-37.35,21.55-3.57,2.04-6.5.26-6.53-3.86-.05-7.2-.01-14.39-.01-21.59Z"/>
    </g>
  </g>
</svg>