<?xml version="1.0" encoding="UTF-8"?>
<svg id="Layer_2" data-name="Layer 2" xmlns="http://www.w3.org/2000/svg" viewBox="0 0 188.26 188.33">
  <defs>
    <style>
      .cls-1 {
        stroke-width: 0px;
      }
    </style>
  </defs>
  <g id="Layer_1-2" data-name="Layer 1">
    <path class="cls-1" d="m80.24,187.96C42.01,183.63.72,149.35,0,94.92-.67,42.9,42.42-.23,94.65,0c52.98.24,96.26,44.84,93.47,99.23-1.33,26.07-11.58,48.13-30.86,65.86-12.77,11.74-27.55,19.55-44.85,23.24v-67.6h18.37c1.4-8.94,2.75-17.57,4.16-26.58h-27.84c0-1.48,0-2.65,0-3.81,0-5.17-.08-10.34.05-15.51.16-6.39,4.24-11.32,10.58-12.16,4.59-.61,9.29-.41,13.94-.52,2.23-.06,4.45,0,6.93,0v-23.39c-3.5-.42-7.08-1-10.69-1.27-7.78-.58-15.61-1.11-23.24,1.09-14.93,4.3-23.52,15.8-24.08,32.32-.22,6.48-.07,12.97-.09,19.46,0,1.09,0,2.19,0,3.66h-21.28v26.41h21.02v67.54Z"/>
  </g>
</svg>