<?xml version="1.0" encoding="UTF-8"?>
<svg id="Layer_2" data-name="Layer 2" xmlns="http://www.w3.org/2000/svg" viewBox="0 0 177.78 177.76">
  <defs>
    <style>
      .cls-1 {
        stroke-width: 0px;
      }
    </style>
  </defs>
  <g id="Layer_1-2" data-name="Layer 1">
    <g>
      <path class="cls-1" d="m88.89,177.76C39.8,177.76-.02,137.91,0,88.81.02,39.73,39.91-.06,89.03,0c49.08.06,88.83,39.95,88.75,89.08-.07,48.93-39.91,88.67-88.89,88.67Zm51.48-88.82c-.31,0-.62-.01-.93-.02,0-7.59.18-15.18-.04-22.75-.45-16.16-11.69-27.47-27.92-27.77-15.07-.28-30.16-.28-45.24,0-16.2.3-27.55,11.64-27.85,27.82-.28,15.16-.27,30.34,0,45.51.29,15.85,11.69,27.32,27.48,27.62,15.35.29,30.72.27,46.07,0,14.14-.25,24.81-9.27,26.84-23.3,1.29-8.93,1.11-18.07,1.59-27.12Z"/>
      <path class="cls-1" d="m46.83,88.88c.28-8.04.33-16.09.91-24.11.7-9.84,7.24-16.71,17.16-16.98,16.25-.45,32.53-.39,48.79.05,8.95.25,15.89,7.37,16.27,16.35.56,13.29.58,26.62.59,39.93,0,4.22-.34,8.53-1.26,12.63-1.65,7.42-7.66,12.95-15.31,13.13-16.72.4-33.46.46-50.17-.01-8.8-.25-15.21-7.47-16.09-16.32-.15-1.47-.4-2.94-.41-4.42-.04-6.75-.02-13.5-.02-20.25-.15,0-.31,0-.46,0Zm42.16-26.18c-14.44-.03-26.21,11.58-26.28,25.93-.07,14.59,11.57,26.39,26.08,26.42,14.44.03,26.21-11.58,26.28-25.93.07-14.59-11.57-26.38-26.08-26.42Zm33.23-1.11c-.02-3.4-2.81-6.11-6.21-6.04-3.27.07-5.96,2.75-6.01,6-.05,3.3,2.8,6.2,6.11,6.22,3.35.02,6.13-2.8,6.11-6.18Z"/>
      <path class="cls-1" d="m105.98,88.88c0,9.29-7.98,17.21-17.23,17.09-9.23-.12-16.95-7.9-16.95-17.09,0-9.28,7.99-17.21,17.23-17.09,9.24.12,16.95,7.9,16.95,17.09Z"/>
    </g>
  </g>
</svg>