<?xml version="1.0" encoding="UTF-8"?>
<svg id="Layer_2" data-name="Layer 2" xmlns="http://www.w3.org/2000/svg" viewBox="0 0 185.46 185.47">
  <defs>
    <style>
      .cls-1 {
        stroke-width: 0px;
      }
    </style>
  </defs>
  <g id="Layer_1-2" data-name="Layer 1">
    <path class="cls-1" d="m92.67,0c51.23-.03,92.8,41.52,92.79,92.74,0,51.21-41.6,92.76-92.82,92.72C41.45,185.43-.06,143.81,0,92.57.06,41.49,41.57.03,92.67,0Zm31.96,140.08h22.59c0-1.01,0-1.86,0-2.71,0-12.16.07-24.33-.05-36.49-.03-3.26-.38-6.56-1.06-9.75-2.13-10.04-7.68-17.37-18.03-19.66-10.33-2.28-19.6-.29-26.22,8.92-.14.19-.42.27-1.03.64v-8.61h-22.32v67.66h22.36c0-1.21,0-2.25,0-3.29,0-11.97-.05-23.94.04-35.91.05-6.49,5.06-11.91,11.14-12.32,6.85-.47,11.27,2.97,12.05,10.34.65,6.21.47,12.52.53,18.78.07,7.41.02,14.82.02,22.41ZM43.42,72.43v67.66h22.23v-67.66h-22.23Zm23.79-20.99c.04-6.94-5.12-11.93-12.42-12-7.31-.07-12.77,4.84-12.9,11.59-.12,6.79,5.19,11.92,12.47,12.01,7.3.09,12.81-4.88,12.86-11.6Z"/>
  </g>
</svg>