<?xml version="1.0" encoding="UTF-8"?>
<svg id="Layer_2" data-name="Layer 2" xmlns="http://www.w3.org/2000/svg" viewBox="0 0 194.29 194.29">
  <defs>
    <style>
      .cls-1 {
        stroke-width: 0px;
      }
    </style>
  </defs>
  <g id="Layer_1-2" data-name="Layer 1">
    <g>
      <path class="cls-1" d="m97.2,0c53.66.02,97.14,43.58,97.1,97.27-.04,53.63-43.67,97.11-97.35,97.03C43.32,194.21-.09,150.58,0,96.87.09,43.39,43.65-.02,97.2,0Zm10.59,88.36c13.83-16.08,27.43-31.91,41.55-48.33-2.47,0-4.17.16-5.82-.04-2.89-.35-4.79.73-6.67,2.99-7.17,8.63-14.57,17.07-21.89,25.58-3.79,4.4-7.59,8.79-11.52,13.34-.8-1.12-1.4-1.92-1.96-2.75-8.42-12.24-16.87-24.46-25.2-36.76-1.22-1.81-2.52-2.46-4.69-2.43-7.69.13-15.37.05-23.06.05-2.18,0-4.37,0-7.2,0,14.75,21.47,29.13,42.42,43.57,63.45-14.48,16.84-28.81,33.51-43.62,50.73,2.39,0,4.08-.15,5.74.03,2.86.31,4.81-.64,6.71-2.94,6.69-8.11,13.65-16,20.51-23.97,4.92-5.72,9.86-11.43,14.98-17.37.8,1.08,1.42,1.85,1.97,2.66,8.88,12.91,17.78,25.79,26.57,38.76,1.38,2.03,2.78,2.96,5.35,2.9,8.19-.19,16.39-.07,24.58-.07,1.57,0,3.14,0,5.33,0-15.28-22.25-30.19-43.96-45.23-65.86Z"/>
      <path class="cls-1" d="m55.21,47.36c4.44,0,8.69-.15,12.91.1,1.11.07,2.47,1.16,3.17,2.16,13.66,19.41,27.25,38.87,40.85,58.32,8.28,11.84,16.56,23.67,24.83,35.51.69.98,1.33,1.99,2.38,3.54-5.13,0-9.8.04-14.45-.06-.52-.01-1.14-.75-1.51-1.29-22.7-32.44-45.38-64.89-68.06-97.35-.1-.14-.05-.37-.12-.94Z"/>
    </g>
  </g>
</svg>